<?xml version="1.0" encoding="UTF-8"?>
<svg width="540" height="50" viewBox="0 0 540 50" xmlns="http://www.w3.org/2000/svg" xmlns:xlink="http://www.w3.org/1999/xlink" xml:space="preserve" version="1.1"  baseProfile="full">
 <g id="mainlayer" font-size="10" style="font-family: monospace">
<rect style="fill:#0d1117" x="0" y="0" width="6" height="10"/>
<rect style="fill:#0d1117" x="6" y="0" width="6" height="10"/>
<rect style="fill:#0d1117" x="12" y="0" width="6" height="10"/>
<rect style="fill:#0d1117" x="18" y="0" width="6" height="10"/>
<rect style="fill:#0d1117" x="24" y="0" width="6" height="10"/>
<rect style="fill:#0d1117" x="30" y="0" width="6" height="10"/>
<rect style="fill:#0d1117" x="36" y="0" width="6" height="10"/>
<rect style="fill:#0d1117" x="42" y="0" width="6" height="10"/>
<rect style="fill:#0d1117" x="48" y="0" width="6" height="10"/>
<rect style="fill:#0d1117" x="54" y="0" width="6" height="10"/>
<rect style="fill:#0d1117" x="60" y="0" width="6" height="10"/>
<rect style="fill:#0d1117" x="66" y="0" width="6" height="10"/>
<rect style="fill:#0d1117" x="72" y="0" width="6" height="10"/>
<rect style="fill:#0d1117" x="78" y="0" width="6" height="10"/>
<rect style="fill:#0d1117" x="84" y="0" width="6" height="10"/>
<rect style="fill:#0d1117" x="90" y="0" width="6" height="10"/>
<rect style="fill:#0d1117" x="96" y="0" width="6" height="10"/>
<rect style="fill:#0d1117" x="102" y="0" width="6" height="10"/>
<rect style="fill:#0d1117" x="108" y="0" width="6" height="10"/>
<rect style="fill:#0d1117" x="114" y="0" width="6" height="10"/>
<rect style="fill:#0d1117" x="120" y="0" width="6" height="10"/>
<rect style="fill:#0d1117" x="126" y="0" width="6" height="10"/>
<rect style="fill:#0d1117" x="132" y="0" width="6" height="10"/>
<rect style="fill:#0d1117" x="138" y="0" width="6" height="10"/>
<rect style="fill:#0d1117" x="144" y="0" width="6" height="10"/>
<rect style="fill:#0d1117" x="150" y="0" width="6" height="10"/>
<rect style="fill:#0d1117" x="156" y="0" width="6" height="10"/>
<rect style="fill:#0d1117" x="162" y="0" width="6" height="10"/>
<rect style="fill:#0d1117" x="168" y="0" width="6" height="10"/>
<rect style="fill:#0d1117" x="174" y="0" width="6" height="10"/>
<rect style="fill:#0d1117" x="180" y="0" width="6" height="10"/>
<rect style="fill:#0d1117" x="186" y="0" width="6" height="10"/>
<rect style="fill:#0d1117" x="192" y="0" width="6" height="10"/>
<rect style="fill:#0d1117" x="198" y="0" width="6" height="10"/>
<rect style="fill:#0d1117" x="204" y="0" width="6" height="10"/>
<rect style="fill:#0d1117" x="210" y="0" width="6" height="10"/>
<rect style="fill:#0d1117" x="216" y="0" width="6" height="10"/>
<rect style="fill:#0d1117" x="222" y="0" width="6" height="10"/>
<rect style="fill:#0d1117" x="228" y="0" width="6" height="10"/>
<rect style="fill:#0d1117" x="234" y="0" width="6" height="10"/>
<rect style="fill:#0d1117" x="240" y="0" width="6" height="10"/>
<rect style="fill:#0d1117" x="246" y="0" width="6" height="10"/>
<rect style="fill:#0d1117" x="252" y="0" width="6" height="10"/>
<rect style="fill:#0d1117" x="258" y="0" width="6" height="10"/>
<rect style="fill:#0d1117" x="264" y="0" width="6" height="10"/>
<rect style="fill:#0d1117" x="270" y="0" width="6" height="10"/>
<rect style="fill:#0d1117" x="276" y="0" width="6" height="10"/>
<rect style="fill:#0d1117" x="282" y="0" width="6" height="10"/>
<rect style="fill:#0d1117" x="288" y="0" width="6" height="10"/>
<rect style="fill:#0d1117" x="294" y="0" width="6" height="10"/>
<rect style="fill:#0d1117" x="300" y="0" width="6" height="10"/>
<rect style="fill:#0d1117" x="306" y="0" width="6" height="10"/>
<rect style="fill:#0d1117" x="312" y="0" width="6" height="10"/>
<rect style="fill:#0d1117" x="318" y="0" width="6" height="10"/>
<rect style="fill:#0d1117" x="324" y="0" width="6" height="10"/>
<rect style="fill:#0d1117" x="330" y="0" width="6" height="10"/>
<rect style="fill:#0d1117" x="336" y="0" width="6" height="10"/>
<rect style="fill:#0d1117" x="342" y="0" width="6" height="10"/>
<rect style="fill:#0d1117" x="348" y="0" width="6" height="10"/>
<rect style="fill:#0d1117" x="354" y="0" width="6" height="10"/>
<rect style="fill:#0d1117" x="360" y="0" width="6" height="10"/>
<rect style="fill:#0d1117" x="366" y="0" width="6" height="10"/>
<rect style="fill:#0d1117" x="372" y="0" width="6" height="10"/>
<rect style="fill:#0d1117" x="378" y="0" width="6" height="10"/>
<rect style="fill:#0d1117" x="384" y="0" width="6" height="10"/>
<rect style="fill:#0d1117" x="390" y="0" width="6" height="10"/>
<rect style="fill:#0d1117" x="396" y="0" width="6" height="10"/>
<rect style="fill:#0d1117" x="402" y="0" width="6" height="10"/>
<rect style="fill:#0d1117" x="408" y="0" width="6" height="10"/>
<rect style="fill:#0d1117" x="414" y="0" width="6" height="10"/>
<rect style="fill:#0d1117" x="420" y="0" width="6" height="10"/>
<rect style="fill:#0d1117" x="426" y="0" width="6" height="10"/>
<rect style="fill:#0d1117" x="432" y="0" width="6" height="10"/>
<rect style="fill:#0d1117" x="438" y="0" width="6" height="10"/>
<rect style="fill:#0d1117" x="444" y="0" width="6" height="10"/>
<rect style="fill:#0d1117" x="450" y="0" width="6" height="10"/>
<rect style="fill:#0d1117" x="456" y="0" width="6" height="10"/>
<rect style="fill:#0d1117" x="462" y="0" width="6" height="10"/>
<rect style="fill:#0d1117" x="468" y="0" width="6" height="10"/>
<rect style="fill:#0d1117" x="474" y="0" width="6" height="10"/>
<rect style="fill:#0d1117" x="480" y="0" width="6" height="10"/>
<rect style="fill:#0d1117" x="486" y="0" width="6" height="10"/>
<rect style="fill:#0d1117" x="492" y="0" width="6" height="10"/>
<rect style="fill:#0d1117" x="498" y="0" width="6" height="10"/>
<rect style="fill:#0d1117" x="504" y="0" width="6" height="10"/>
<rect style="fill:#0d1117" x="510" y="0" width="6" height="10"/>
<rect style="fill:#0d1117" x="516" y="0" width="6" height="10"/>
<rect style="fill:#0d1117" x="522" y="0" width="6" height="10"/>
<rect style="fill:#0d1117" x="528" y="0" width="6" height="10"/>
<rect style="fill:#0d1117" x="534" y="0" width="6" height="10"/>
<rect style="fill:#0d1117" x="0" y="10" width="6" height="10"/>
<rect style="fill:#0d1117" x="6" y="10" width="6" height="10"/>
<rect style="fill:#0d1117" x="12" y="10" width="6" height="10"/>
<rect style="fill:#0d1117" x="18" y="10" width="6" height="10"/>
<rect style="fill:#0d1117" x="24" y="10" width="6" height="10"/>
<rect style="fill:#0d1117" x="30" y="10" width="6" height="10"/>
<rect style="fill:#0d1117" x="36" y="10" width="6" height="10"/>
<rect style="fill:#0d1117" x="42" y="10" width="6" height="10"/>
<rect style="fill:#0d1117" x="48" y="10" width="6" height="10"/>
<rect style="fill:#0d1117" x="54" y="10" width="6" height="10"/>
<rect style="fill:#0d1117" x="60" y="10" width="6" height="10"/>
<rect style="fill:#0d1117" x="66" y="10" width="6" height="10"/>
<rect style="fill:#0d1117" x="72" y="10" width="6" height="10"/>
<rect style="fill:#0d1117" x="78" y="10" width="6" height="10"/>
<rect style="fill:#0d1117" x="84" y="10" width="6" height="10"/>
<rect style="fill:#0d1117" x="90" y="10" width="6" height="10"/>
<rect style="fill:#0d1117" x="96" y="10" width="6" height="10"/>
<rect style="fill:#0d1117" x="102" y="10" width="6" height="10"/>
<rect style="fill:#0d1117" x="108" y="10" width="6" height="10"/>
<rect style="fill:#0d1117" x="114" y="10" width="6" height="10"/>
<rect style="fill:#0d1117" x="120" y="10" width="6" height="10"/>
<rect style="fill:#0d1117" x="126" y="10" width="6" height="10"/>
<rect style="fill:#0d1117" x="132" y="10" width="6" height="10"/>
<rect style="fill:#0d1117" x="138" y="10" width="6" height="10"/>
<rect style="fill:#0d1117" x="144" y="10" width="6" height="10"/>
<rect style="fill:#0d1117" x="150" y="10" width="6" height="10"/>
<rect style="fill:#0d1117" x="156" y="10" width="6" height="10"/>
<rect style="fill:#0d1117" x="162" y="10" width="6" height="10"/>
<rect style="fill:#0d1117" x="168" y="10" width="6" height="10"/>
<rect style="fill:#0d1117" x="174" y="10" width="6" height="10"/>
<rect style="fill:#0d1117" x="180" y="10" width="6" height="10"/>
<rect style="fill:#0d1117" x="186" y="10" width="6" height="10"/>
<rect style="fill:#0d1117" x="192" y="10" width="6" height="10"/>
<rect style="fill:#0d1117" x="198" y="10" width="6" height="10"/>
<rect style="fill:#0d1117" x="204" y="10" width="6" height="10"/>
<rect style="fill:#0d1117" x="210" y="10" width="6" height="10"/>
<rect style="fill:#0d1117" x="216" y="10" width="6" height="10"/>
<rect style="fill:#0d1117" x="222" y="10" width="6" height="10"/>
<rect style="fill:#0d1117" x="228" y="10" width="6" height="10"/>
<rect style="fill:#0d1117" x="234" y="10" width="6" height="10"/>
<rect style="fill:#0d1117" x="240" y="10" width="6" height="10"/>
<rect style="fill:#0d1117" x="246" y="10" width="6" height="10"/>
<rect style="fill:#0d1117" x="252" y="10" width="6" height="10"/>
<rect style="fill:#0d1117" x="258" y="10" width="6" height="10"/>
<rect style="fill:#0d1117" x="264" y="10" width="6" height="10"/>
<rect style="fill:#0d1117" x="270" y="10" width="6" height="10"/>
<rect style="fill:#0d1117" x="276" y="10" width="6" height="10"/>
<rect style="fill:#0d1117" x="282" y="10" width="6" height="10"/>
<rect style="fill:#0d1117" x="288" y="10" width="6" height="10"/>
<rect style="fill:#0d1117" x="294" y="10" width="6" height="10"/>
<rect style="fill:#0d1117" x="300" y="10" width="6" height="10"/>
<rect style="fill:#0d1117" x="306" y="10" width="6" height="10"/>
<rect style="fill:#0d1117" x="312" y="10" width="6" height="10"/>
<rect style="fill:#0d1117" x="318" y="10" width="6" height="10"/>
<rect style="fill:#0d1117" x="324" y="10" width="6" height="10"/>
<rect style="fill:#0d1117" x="330" y="10" width="6" height="10"/>
<rect style="fill:#0d1117" x="336" y="10" width="6" height="10"/>
<rect style="fill:#0d1117" x="342" y="10" width="6" height="10"/>
<rect style="fill:#0d1117" x="348" y="10" width="6" height="10"/>
<rect style="fill:#0d1117" x="354" y="10" width="6" height="10"/>
<rect style="fill:#0d1117" x="360" y="10" width="6" height="10"/>
<rect style="fill:#0d1117" x="366" y="10" width="6" height="10"/>
<rect style="fill:#0d1117" x="372" y="10" width="6" height="10"/>
<rect style="fill:#0d1117" x="378" y="10" width="6" height="10"/>
<rect style="fill:#0d1117" x="384" y="10" width="6" height="10"/>
<rect style="fill:#0d1117" x="390" y="10" width="6" height="10"/>
<rect style="fill:#0d1117" x="396" y="10" width="6" height="10"/>
<rect style="fill:#0d1117" x="402" y="10" width="6" height="10"/>
<rect style="fill:#0d1117" x="408" y="10" width="6" height="10"/>
<rect style="fill:#0d1117" x="414" y="10" width="6" height="10"/>
<rect style="fill:#0d1117" x="420" y="10" width="6" height="10"/>
<rect style="fill:#0d1117" x="426" y="10" width="6" height="10"/>
<rect style="fill:#0d1117" x="432" y="10" width="6" height="10"/>
<rect style="fill:#0d1117" x="438" y="10" width="6" height="10"/>
<rect style="fill:#0d1117" x="444" y="10" width="6" height="10"/>
<rect style="fill:#0d1117" x="450" y="10" width="6" height="10"/>
<rect style="fill:#0d1117" x="456" y="10" width="6" height="10"/>
<rect style="fill:#0d1117" x="462" y="10" width="6" height="10"/>
<rect style="fill:#0d1117" x="468" y="10" width="6" height="10"/>
<rect style="fill:#0d1117" x="474" y="10" width="6" height="10"/>
<rect style="fill:#0d1117" x="480" y="10" width="6" height="10"/>
<rect style="fill:#0d1117" x="486" y="10" width="6" height="10"/>
<rect style="fill:#0d1117" x="492" y="10" width="6" height="10"/>
<rect style="fill:#0d1117" x="498" y="10" width="6" height="10"/>
<rect style="fill:#0d1117" x="504" y="10" width="6" height="10"/>
<rect style="fill:#0d1117" x="510" y="10" width="6" height="10"/>
<rect style="fill:#0d1117" x="516" y="10" width="6" height="10"/>
<rect style="fill:#0d1117" x="522" y="10" width="6" height="10"/>
<rect style="fill:#0d1117" x="528" y="10" width="6" height="10"/>
<rect style="fill:#0d1117" x="534" y="10" width="6" height="10"/>
<rect style="fill:#0d1117" x="0" y="20" width="6" height="10"/>
<rect style="fill:#0d1117" x="6" y="20" width="6" height="10"/>
<rect style="fill:#0d1117" x="12" y="20" width="6" height="10"/>
<rect style="fill:#0d1117" x="18" y="20" width="6" height="10"/>
<rect style="fill:#0d1117" x="24" y="20" width="6" height="10"/>
<rect style="fill:#0d1117" x="30" y="20" width="6" height="10"/>
<rect style="fill:#0d1117" x="36" y="20" width="6" height="10"/>
<rect style="fill:#0d1117" x="42" y="20" width="6" height="10"/>
<rect style="fill:#0d1117" x="48" y="20" width="6" height="10"/>
<rect style="fill:#0d1117" x="54" y="20" width="6" height="10"/>
<rect style="fill:#0d1117" x="60" y="20" width="6" height="10"/>
<rect style="fill:#0d1117" x="66" y="20" width="6" height="10"/>
<rect style="fill:#0d1117" x="72" y="20" width="6" height="10"/>
<rect style="fill:#0d1117" x="78" y="20" width="6" height="10"/>
<rect style="fill:#0d1117" x="84" y="20" width="6" height="10"/>
<rect style="fill:#0d1117" x="90" y="20" width="6" height="10"/>
<rect style="fill:#0d1117" x="96" y="20" width="6" height="10"/>
<rect style="fill:#0d1117" x="102" y="20" width="6" height="10"/>
<rect style="fill:#0d1117" x="108" y="20" width="6" height="10"/>
<rect style="fill:#0d1117" x="114" y="20" width="6" height="10"/>
<rect style="fill:#0d1117" x="120" y="20" width="6" height="10"/>
<rect style="fill:#0d1117" x="126" y="20" width="6" height="10"/>
<rect style="fill:#0d1117" x="132" y="20" width="6" height="10"/>
<rect style="fill:#0d1117" x="138" y="20" width="6" height="10"/>
<rect style="fill:#0d1117" x="144" y="20" width="6" height="10"/>
<rect style="fill:#0d1117" x="150" y="20" width="6" height="10"/>
<rect style="fill:#0d1117" x="156" y="20" width="6" height="10"/>
<rect style="fill:#0d1117" x="162" y="20" width="6" height="10"/>
<rect style="fill:#0d1117" x="168" y="20" width="6" height="10"/>
<rect style="fill:#0d1117" x="174" y="20" width="6" height="10"/>
<rect style="fill:#0d1117" x="180" y="20" width="6" height="10"/>
<rect style="fill:#0d1117" x="186" y="20" width="6" height="10"/>
<rect style="fill:#0d1117" x="192" y="20" width="6" height="10"/>
<rect style="fill:#0d1117" x="198" y="20" width="6" height="10"/>
<rect style="fill:#0d1117" x="204" y="20" width="6" height="10"/>
<rect style="fill:#0d1117" x="210" y="20" width="6" height="10"/>
<rect style="fill:#0d1117" x="216" y="20" width="6" height="10"/>
<rect style="fill:#0d1117" x="222" y="20" width="6" height="10"/>
<rect style="fill:#0d1117" x="228" y="20" width="6" height="10"/>
<rect style="fill:#0d1117" x="234" y="20" width="6" height="10"/>
<rect style="fill:#0d1117" x="240" y="20" width="6" height="10"/>
<rect style="fill:#0d1117" x="246" y="20" width="6" height="10"/>
<rect style="fill:#0d1117" x="252" y="20" width="6" height="10"/>
<rect style="fill:#0d1117" x="258" y="20" width="6" height="10"/>
<rect style="fill:#0d1117" x="264" y="20" width="6" height="10"/>
<rect style="fill:#0d1117" x="270" y="20" width="6" height="10"/>
<rect style="fill:#0d1117" x="276" y="20" width="6" height="10"/>
<rect style="fill:#0d1117" x="282" y="20" width="6" height="10"/>
<rect style="fill:#0d1117" x="288" y="20" width="6" height="10"/>
<rect style="fill:#0d1117" x="294" y="20" width="6" height="10"/>
<rect style="fill:#0d1117" x="300" y="20" width="6" height="10"/>
<rect style="fill:#0d1117" x="306" y="20" width="6" height="10"/>
<rect style="fill:#0d1117" x="312" y="20" width="6" height="10"/>
<rect style="fill:#0d1117" x="318" y="20" width="6" height="10"/>
<rect style="fill:#0d1117" x="324" y="20" width="6" height="10"/>
<rect style="fill:#0d1117" x="330" y="20" width="6" height="10"/>
<rect style="fill:#0d1117" x="336" y="20" width="6" height="10"/>
<rect style="fill:#0d1117" x="342" y="20" width="6" height="10"/>
<rect style="fill:#0d1117" x="348" y="20" width="6" height="10"/>
<rect style="fill:#0d1117" x="354" y="20" width="6" height="10"/>
<rect style="fill:#0d1117" x="360" y="20" width="6" height="10"/>
<rect style="fill:#0d1117" x="366" y="20" width="6" height="10"/>
<rect style="fill:#0d1117" x="372" y="20" width="6" height="10"/>
<rect style="fill:#0d1117" x="378" y="20" width="6" height="10"/>
<rect style="fill:#0d1117" x="384" y="20" width="6" height="10"/>
<rect style="fill:#0d1117" x="390" y="20" width="6" height="10"/>
<rect style="fill:#0d1117" x="396" y="20" width="6" height="10"/>
<rect style="fill:#0d1117" x="402" y="20" width="6" height="10"/>
<rect style="fill:#0d1117" x="408" y="20" width="6" height="10"/>
<rect style="fill:#0d1117" x="414" y="20" width="6" height="10"/>
<rect style="fill:#0d1117" x="420" y="20" width="6" height="10"/>
<rect style="fill:#0d1117" x="426" y="20" width="6" height="10"/>
<rect style="fill:#0d1117" x="432" y="20" width="6" height="10"/>
<rect style="fill:#0d1117" x="438" y="20" width="6" height="10"/>
<rect style="fill:#0d1117" x="444" y="20" width="6" height="10"/>
<rect style="fill:#0d1117" x="450" y="20" width="6" height="10"/>
<rect style="fill:#0d1117" x="456" y="20" width="6" height="10"/>
<rect style="fill:#0d1117" x="462" y="20" width="6" height="10"/>
<rect style="fill:#0d1117" x="468" y="20" width="6" height="10"/>
<rect style="fill:#0d1117" x="474" y="20" width="6" height="10"/>
<rect style="fill:#0d1117" x="480" y="20" width="6" height="10"/>
<rect style="fill:#0d1117" x="486" y="20" width="6" height="10"/>
<rect style="fill:#0d1117" x="492" y="20" width="6" height="10"/>
<rect style="fill:#0d1117" x="498" y="20" width="6" height="10"/>
<rect style="fill:#0d1117" x="504" y="20" width="6" height="10"/>
<rect style="fill:#0d1117" x="510" y="20" width="6" height="10"/>
<rect style="fill:#0d1117" x="516" y="20" width="6" height="10"/>
<rect style="fill:#0d1117" x="522" y="20" width="6" height="10"/>
<rect style="fill:#0d1117" x="528" y="20" width="6" height="10"/>
<rect style="fill:#0d1117" x="534" y="20" width="6" height="10"/>
<rect style="fill:#0d1117" x="0" y="30" width="6" height="10"/>
<rect style="fill:#0d1117" x="6" y="30" width="6" height="10"/>
<rect style="fill:#0d1117" x="12" y="30" width="6" height="10"/>
<rect style="fill:#0d1117" x="18" y="30" width="6" height="10"/>
<rect style="fill:#0d1117" x="24" y="30" width="6" height="10"/>
<rect style="fill:#0d1117" x="30" y="30" width="6" height="10"/>
<rect style="fill:#0d1117" x="36" y="30" width="6" height="10"/>
<rect style="fill:#0d1117" x="42" y="30" width="6" height="10"/>
<rect style="fill:#0d1117" x="48" y="30" width="6" height="10"/>
<rect style="fill:#0d1117" x="54" y="30" width="6" height="10"/>
<rect style="fill:#0d1117" x="60" y="30" width="6" height="10"/>
<rect style="fill:#0d1117" x="66" y="30" width="6" height="10"/>
<rect style="fill:#0d1117" x="72" y="30" width="6" height="10"/>
<rect style="fill:#0d1117" x="78" y="30" width="6" height="10"/>
<rect style="fill:#0d1117" x="84" y="30" width="6" height="10"/>
<rect style="fill:#0d1117" x="90" y="30" width="6" height="10"/>
<rect style="fill:#0d1117" x="96" y="30" width="6" height="10"/>
<rect style="fill:#0d1117" x="102" y="30" width="6" height="10"/>
<rect style="fill:#0d1117" x="108" y="30" width="6" height="10"/>
<rect style="fill:#0d1117" x="114" y="30" width="6" height="10"/>
<rect style="fill:#0d1117" x="120" y="30" width="6" height="10"/>
<rect style="fill:#0d1117" x="126" y="30" width="6" height="10"/>
<rect style="fill:#0d1117" x="132" y="30" width="6" height="10"/>
<rect style="fill:#0d1117" x="138" y="30" width="6" height="10"/>
<rect style="fill:#0d1117" x="144" y="30" width="6" height="10"/>
<rect style="fill:#0d1117" x="150" y="30" width="6" height="10"/>
<rect style="fill:#0d1117" x="156" y="30" width="6" height="10"/>
<rect style="fill:#0d1117" x="162" y="30" width="6" height="10"/>
<rect style="fill:#0d1117" x="168" y="30" width="6" height="10"/>
<rect style="fill:#0d1117" x="174" y="30" width="6" height="10"/>
<rect style="fill:#0d1117" x="180" y="30" width="6" height="10"/>
<rect style="fill:#0d1117" x="186" y="30" width="6" height="10"/>
<rect style="fill:#0d1117" x="192" y="30" width="6" height="10"/>
<rect style="fill:#0d1117" x="198" y="30" width="6" height="10"/>
<rect style="fill:#0d1117" x="204" y="30" width="6" height="10"/>
<rect style="fill:#0d1117" x="210" y="30" width="6" height="10"/>
<rect style="fill:#0d1117" x="216" y="30" width="6" height="10"/>
<rect style="fill:#0d1117" x="222" y="30" width="6" height="10"/>
<rect style="fill:#0d1117" x="228" y="30" width="6" height="10"/>
<rect style="fill:#0d1117" x="234" y="30" width="6" height="10"/>
<rect style="fill:#0d1117" x="240" y="30" width="6" height="10"/>
<rect style="fill:#0d1117" x="246" y="30" width="6" height="10"/>
<rect style="fill:#0d1117" x="252" y="30" width="6" height="10"/>
<rect style="fill:#0d1117" x="258" y="30" width="6" height="10"/>
<rect style="fill:#0d1117" x="264" y="30" width="6" height="10"/>
<rect style="fill:#0d1117" x="270" y="30" width="6" height="10"/>
<rect style="fill:#0d1117" x="276" y="30" width="6" height="10"/>
<rect style="fill:#0d1117" x="282" y="30" width="6" height="10"/>
<rect style="fill:#0d1117" x="288" y="30" width="6" height="10"/>
<rect style="fill:#0d1117" x="294" y="30" width="6" height="10"/>
<rect style="fill:#0d1117" x="300" y="30" width="6" height="10"/>
<rect style="fill:#0d1117" x="306" y="30" width="6" height="10"/>
<rect style="fill:#0d1117" x="312" y="30" width="6" height="10"/>
<rect style="fill:#0d1117" x="318" y="30" width="6" height="10"/>
<rect style="fill:#0d1117" x="324" y="30" width="6" height="10"/>
<rect style="fill:#0d1117" x="330" y="30" width="6" height="10"/>
<rect style="fill:#0d1117" x="336" y="30" width="6" height="10"/>
<rect style="fill:#0d1117" x="342" y="30" width="6" height="10"/>
<rect style="fill:#0d1117" x="348" y="30" width="6" height="10"/>
<rect style="fill:#0d1117" x="354" y="30" width="6" height="10"/>
<rect style="fill:#0d1117" x="360" y="30" width="6" height="10"/>
<rect style="fill:#0d1117" x="366" y="30" width="6" height="10"/>
<rect style="fill:#0d1117" x="372" y="30" width="6" height="10"/>
<rect style="fill:#0d1117" x="378" y="30" width="6" height="10"/>
<rect style="fill:#0d1117" x="384" y="30" width="6" height="10"/>
<rect style="fill:#0d1117" x="390" y="30" width="6" height="10"/>
<rect style="fill:#0d1117" x="396" y="30" width="6" height="10"/>
<rect style="fill:#0d1117" x="402" y="30" width="6" height="10"/>
<rect style="fill:#0d1117" x="408" y="30" width="6" height="10"/>
<rect style="fill:#0d1117" x="414" y="30" width="6" height="10"/>
<rect style="fill:#0d1117" x="420" y="30" width="6" height="10"/>
<rect style="fill:#0d1117" x="426" y="30" width="6" height="10"/>
<rect style="fill:#0d1117" x="432" y="30" width="6" height="10"/>
<rect style="fill:#0d1117" x="438" y="30" width="6" height="10"/>
<rect style="fill:#0d1117" x="444" y="30" width="6" height="10"/>
<rect style="fill:#0d1117" x="450" y="30" width="6" height="10"/>
<rect style="fill:#0d1117" x="456" y="30" width="6" height="10"/>
<rect style="fill:#0d1117" x="462" y="30" width="6" height="10"/>
<rect style="fill:#0d1117" x="468" y="30" width="6" height="10"/>
<rect style="fill:#0d1117" x="474" y="30" width="6" height="10"/>
<rect style="fill:#0d1117" x="480" y="30" width="6" height="10"/>
<rect style="fill:#0d1117" x="486" y="30" width="6" height="10"/>
<rect style="fill:#0d1117" x="492" y="30" width="6" height="10"/>
<rect style="fill:#0d1117" x="498" y="30" width="6" height="10"/>
<rect style="fill:#0d1117" x="504" y="30" width="6" height="10"/>
<rect style="fill:#0d1117" x="510" y="30" width="6" height="10"/>
<rect style="fill:#0d1117" x="516" y="30" width="6" height="10"/>
<rect style="fill:#0d1117" x="522" y="30" width="6" height="10"/>
<rect style="fill:#0d1117" x="528" y="30" width="6" height="10"/>
<rect style="fill:#0d1117" x="534" y="30" width="6" height="10"/>
<rect style="fill:#0d1117" x="0" y="40" width="6" height="10"/>
<rect style="fill:#0d1117" x="6" y="40" width="6" height="10"/>
<rect style="fill:#0d1117" x="12" y="40" width="6" height="10"/>
<rect style="fill:#0d1117" x="18" y="40" width="6" height="10"/>
<rect style="fill:#0d1117" x="24" y="40" width="6" height="10"/>
<rect style="fill:#0d1117" x="30" y="40" width="6" height="10"/>
<rect style="fill:#0d1117" x="36" y="40" width="6" height="10"/>
<rect style="fill:#0d1117" x="42" y="40" width="6" height="10"/>
<rect style="fill:#0d1117" x="48" y="40" width="6" height="10"/>
<rect style="fill:#0d1117" x="54" y="40" width="6" height="10"/>
<rect style="fill:#0d1117" x="60" y="40" width="6" height="10"/>
<rect style="fill:#0d1117" x="66" y="40" width="6" height="10"/>
<rect style="fill:#0d1117" x="72" y="40" width="6" height="10"/>
<rect style="fill:#0d1117" x="78" y="40" width="6" height="10"/>
<rect style="fill:#0d1117" x="84" y="40" width="6" height="10"/>
<rect style="fill:#0d1117" x="90" y="40" width="6" height="10"/>
<rect style="fill:#0d1117" x="96" y="40" width="6" height="10"/>
<rect style="fill:#0d1117" x="102" y="40" width="6" height="10"/>
<rect style="fill:#0d1117" x="108" y="40" width="6" height="10"/>
<rect style="fill:#0d1117" x="114" y="40" width="6" height="10"/>
<rect style="fill:#0d1117" x="120" y="40" width="6" height="10"/>
<rect style="fill:#0d1117" x="126" y="40" width="6" height="10"/>
<rect style="fill:#0d1117" x="132" y="40" width="6" height="10"/>
<rect style="fill:#0d1117" x="138" y="40" width="6" height="10"/>
<rect style="fill:#0d1117" x="144" y="40" width="6" height="10"/>
<rect style="fill:#0d1117" x="150" y="40" width="6" height="10"/>
<rect style="fill:#0d1117" x="156" y="40" width="6" height="10"/>
<rect style="fill:#0d1117" x="162" y="40" width="6" height="10"/>
<rect style="fill:#0d1117" x="168" y="40" width="6" height="10"/>
<rect style="fill:#0d1117" x="174" y="40" width="6" height="10"/>
<rect style="fill:#0d1117" x="180" y="40" width="6" height="10"/>
<rect style="fill:#0d1117" x="186" y="40" width="6" height="10"/>
<rect style="fill:#0d1117" x="192" y="40" width="6" height="10"/>
<rect style="fill:#0d1117" x="198" y="40" width="6" height="10"/>
<rect style="fill:#0d1117" x="204" y="40" width="6" height="10"/>
<rect style="fill:#0d1117" x="210" y="40" width="6" height="10"/>
<rect style="fill:#0d1117" x="216" y="40" width="6" height="10"/>
<rect style="fill:#0d1117" x="222" y="40" width="6" height="10"/>
<rect style="fill:#0d1117" x="228" y="40" width="6" height="10"/>
<rect style="fill:#0d1117" x="234" y="40" width="6" height="10"/>
<rect style="fill:#0d1117" x="240" y="40" width="6" height="10"/>
<rect style="fill:#0d1117" x="246" y="40" width="6" height="10"/>
<rect style="fill:#0d1117" x="252" y="40" width="6" height="10"/>
<rect style="fill:#0d1117" x="258" y="40" width="6" height="10"/>
<rect style="fill:#0d1117" x="264" y="40" width="6" height="10"/>
<rect style="fill:#0d1117" x="270" y="40" width="6" height="10"/>
<rect style="fill:#0d1117" x="276" y="40" width="6" height="10"/>
<rect style="fill:#0d1117" x="282" y="40" width="6" height="10"/>
<rect style="fill:#0d1117" x="288" y="40" width="6" height="10"/>
<rect style="fill:#0d1117" x="294" y="40" width="6" height="10"/>
<rect style="fill:#0d1117" x="300" y="40" width="6" height="10"/>
<rect style="fill:#0d1117" x="306" y="40" width="6" height="10"/>
<rect style="fill:#0d1117" x="312" y="40" width="6" height="10"/>
<rect style="fill:#0d1117" x="318" y="40" width="6" height="10"/>
<rect style="fill:#0d1117" x="324" y="40" width="6" height="10"/>
<rect style="fill:#0d1117" x="330" y="40" width="6" height="10"/>
<rect style="fill:#0d1117" x="336" y="40" width="6" height="10"/>
<rect style="fill:#0d1117" x="342" y="40" width="6" height="10"/>
<rect style="fill:#0d1117" x="348" y="40" width="6" height="10"/>
<rect style="fill:#0d1117" x="354" y="40" width="6" height="10"/>
<rect style="fill:#0d1117" x="360" y="40" width="6" height="10"/>
<rect style="fill:#0d1117" x="366" y="40" width="6" height="10"/>
<rect style="fill:#0d1117" x="372" y="40" width="6" height="10"/>
<rect style="fill:#0d1117" x="378" y="40" width="6" height="10"/>
<rect style="fill:#0d1117" x="384" y="40" width="6" height="10"/>
<rect style="fill:#0d1117" x="390" y="40" width="6" height="10"/>
<rect style="fill:#0d1117" x="396" y="40" width="6" height="10"/>
<rect style="fill:#0d1117" x="402" y="40" width="6" height="10"/>
<rect style="fill:#0d1117" x="408" y="40" width="6" height="10"/>
<rect style="fill:#0d1117" x="414" y="40" width="6" height="10"/>
<rect style="fill:#0d1117" x="420" y="40" width="6" height="10"/>
<rect style="fill:#0d1117" x="426" y="40" width="6" height="10"/>
<rect style="fill:#0d1117" x="432" y="40" width="6" height="10"/>
<rect style="fill:#0d1117" x="438" y="40" width="6" height="10"/>
<rect style="fill:#0d1117" x="444" y="40" width="6" height="10"/>
<rect style="fill:#0d1117" x="450" y="40" width="6" height="10"/>
<rect style="fill:#0d1117" x="456" y="40" width="6" height="10"/>
<rect style="fill:#0d1117" x="462" y="40" width="6" height="10"/>
<rect style="fill:#0d1117" x="468" y="40" width="6" height="10"/>
<rect style="fill:#0d1117" x="474" y="40" width="6" height="10"/>
<rect style="fill:#0d1117" x="480" y="40" width="6" height="10"/>
<rect style="fill:#0d1117" x="486" y="40" width="6" height="10"/>
<rect style="fill:#0d1117" x="492" y="40" width="6" height="10"/>
<rect style="fill:#0d1117" x="498" y="40" width="6" height="10"/>
<rect style="fill:#0d1117" x="504" y="40" width="6" height="10"/>
<rect style="fill:#0d1117" x="510" y="40" width="6" height="10"/>
<rect style="fill:#0d1117" x="516" y="40" width="6" height="10"/>
<rect style="fill:#0d1117" x="522" y="40" width="6" height="10"/>
<rect style="fill:#0d1117" x="528" y="40" width="6" height="10"/>
<rect style="fill:#0d1117" x="534" y="40" width="6" height="10"/>
<text style="fill:#aaa" x="240" y="8">_</text>
<text style="fill:#aaa" x="246" y="8">_</text>
<text style="fill:#aaa" x="390" y="8">_</text>
<text style="fill:#aaa" x="396" y="8">_</text>
<text style="fill:#aaa" x="432" y="8">_</text>
<text style="fill:#aaa" x="438" y="8">_</text>
<text style="fill:#aaa" x="456" y="8">_</text>
<text style="fill:#aaa" x="12" y="18">_</text>
<text style="fill:#aaa" x="18" y="18">_</text>
<text style="fill:#aaa" x="24" y="18">_</text>
<text style="fill:#aaa" x="30" y="18">_</text>
<text style="fill:#aaa" x="36" y="18">_</text>
<text style="fill:#aaa" x="42" y="18">_</text>
<text style="fill:#aaa" x="48" y="18">_</text>
<text style="fill:#aaa" x="66" y="18">_</text>
<text style="fill:#aaa" x="72" y="18">_</text>
<text style="fill:#aaa" x="78" y="18">_</text>
<text style="fill:#aaa" x="90" y="18">_</text>
<text style="fill:#aaa" x="96" y="18">_</text>
<text style="fill:#aaa" x="102" y="18">_</text>
<text style="fill:#aaa" x="114" y="18">_</text>
<text style="fill:#aaa" x="120" y="18">_</text>
<text style="fill:#aaa" x="126" y="18">_</text>
<text style="fill:#aaa" x="132" y="18">_</text>
<text style="fill:#aaa" x="138" y="18">_</text>
<text style="fill:#aaa" x="162" y="18">_</text>
<text style="fill:#aaa" x="168" y="18">_</text>
<text style="fill:#aaa" x="174" y="18">_</text>
<text style="fill:#aaa" x="180" y="18">_</text>
<text style="fill:#aaa" x="186" y="18">_</text>
<text style="fill:#aaa" x="192" y="18">_</text>
<text style="fill:#aaa" x="198" y="18">_</text>
<text style="fill:#aaa" x="216" y="18">_</text>
<text style="fill:#aaa" x="222" y="18">_</text>
<text style="fill:#aaa" x="228" y="18">_</text>
<text style="fill:#aaa" x="234" y="18">/</text>
<text style="fill:#aaa" x="246" y="18">/</text>
<text style="fill:#aaa" x="252" y="18">_</text>
<text style="fill:#aaa" x="258" y="18">_</text>
<text style="fill:#aaa" x="282" y="18">_</text>
<text style="fill:#aaa" x="288" y="18">_</text>
<text style="fill:#aaa" x="294" y="18">_</text>
<text style="fill:#aaa" x="300" y="18">_</text>
<text style="fill:#aaa" x="306" y="18">_</text>
<text style="fill:#aaa" x="312" y="18">_</text>
<text style="fill:#aaa" x="318" y="18">_</text>
<text style="fill:#aaa" x="330" y="18">_</text>
<text style="fill:#aaa" x="348" y="18">_</text>
<text style="fill:#aaa" x="354" y="18">_</text>
<text style="fill:#aaa" x="360" y="18">_</text>
<text style="fill:#aaa" x="366" y="18">_</text>
<text style="fill:#aaa" x="372" y="18">_</text>
<text style="fill:#aaa" x="384" y="18">/</text>
<text style="fill:#aaa" x="396" y="18">/</text>
<text style="fill:#aaa" x="402" y="18">_</text>
<text style="fill:#aaa" x="408" y="18">_</text>
<text style="fill:#aaa" x="420" y="18">_</text>
<text style="fill:#aaa" x="426" y="18">/</text>
<text style="fill:#aaa" x="438" y="18">/</text>
<text style="fill:#aaa" x="444" y="18">_</text>
<text style="fill:#aaa" x="450" y="18">(</text>
<text style="fill:#aaa" x="456" y="18">_</text>
<text style="fill:#aaa" x="462" y="18">)</text>
<text style="fill:#aaa" x="468" y="18">_</text>
<text style="fill:#aaa" x="474" y="18">_</text>
<text style="fill:#aaa" x="492" y="18">_</text>
<text style="fill:#aaa" x="498" y="18">_</text>
<text style="fill:#aaa" x="504" y="18">_</text>
<text style="fill:#aaa" x="522" y="18">_</text>
<text style="fill:#aaa" x="528" y="18">_</text>
<text style="fill:#aaa" x="534" y="18">_</text>
<text style="fill:#aaa" x="6" y="28">/</text>
<text style="fill:#aaa" x="18" y="28">_</text>
<text style="fill:#aaa" x="24" y="28">_</text>
<text style="fill:#aaa" x="30" y="28">/</text>
<text style="fill:#aaa" x="42" y="28">_</text>
<text style="fill:#aaa" x="54" y="28">\</text>
<text style="fill:#aaa" x="60" y="28">/</text>
<text style="fill:#aaa" x="72" y="28">_</text>
<text style="fill:#aaa" x="84" y="28">`</text>
<text style="fill:#aaa" x="90" y="28">/</text>
<text style="fill:#aaa" x="102" y="28">/</text>
<text style="fill:#aaa" x="108" y="28">/</text>
<text style="fill:#aaa" x="120" y="28">/</text>
<text style="fill:#aaa" x="132" y="28">-</text>
<text style="fill:#aaa" x="138" y="28">_</text>
<text style="fill:#aaa" x="144" y="28">)</text>
<text style="fill:#aaa" x="156" y="28">/</text>
<text style="fill:#aaa" x="168" y="28">_</text>
<text style="fill:#aaa" x="174" y="28">_</text>
<text style="fill:#aaa" x="180" y="28">/</text>
<text style="fill:#aaa" x="192" y="28">_</text>
<text style="fill:#aaa" x="204" y="28">\</text>
<text style="fill:#aaa" x="210" y="28">/</text>
<text style="fill:#aaa" x="222" y="28">_</text>
<text style="fill:#aaa" x="240" y="28">/</text>
<text style="fill:#aaa" x="252" y="28">-</text>
<text style="fill:#aaa" x="258" y="28">_</text>
<text style="fill:#aaa" x="264" y="28">)</text>
<text style="fill:#aaa" x="276" y="28">/</text>
<text style="fill:#aaa" x="288" y="28">_</text>
<text style="fill:#aaa" x="294" y="28">_</text>
<text style="fill:#aaa" x="300" y="28">/</text>
<text style="fill:#aaa" x="312" y="28">-</text>
<text style="fill:#aaa" x="318" y="28">_</text>
<text style="fill:#aaa" x="324" y="28">)</text>
<text style="fill:#aaa" x="336" y="28">|</text>
<text style="fill:#aaa" x="342" y="28">/</text>
<text style="fill:#aaa" x="354" y="28">/</text>
<text style="fill:#aaa" x="366" y="28">-</text>
<text style="fill:#aaa" x="372" y="28">_</text>
<text style="fill:#aaa" x="378" y="28">)</text>
<text style="fill:#aaa" x="390" y="28">/</text>
<text style="fill:#aaa" x="402" y="28">_</text>
<text style="fill:#aaa" x="414" y="28">`</text>
<text style="fill:#aaa" x="420" y="28">/</text>
<text style="fill:#aaa" x="432" y="28">_</text>
<text style="fill:#aaa" x="438" y="28">_</text>
<text style="fill:#aaa" x="444" y="28">/</text>
<text style="fill:#aaa" x="456" y="28">/</text>
<text style="fill:#aaa" x="468" y="28">_</text>
<text style="fill:#aaa" x="480" y="28">\</text>
<text style="fill:#aaa" x="486" y="28">/</text>
<text style="fill:#aaa" x="498" y="28">_</text>
<text style="fill:#aaa" x="510" y="28">\</text>
<text style="fill:#aaa" x="516" y="28">(</text>
<text style="fill:#aaa" x="522" y="28">_</text>
<text style="fill:#aaa" x="528" y="28">-</text>
<text style="fill:#aaa" x="534" y="28">&lt;</text>
<text style="fill:#aaa" x="0" y="38">/</text>
<text style="fill:#aaa" x="6" y="38">_</text>
<text style="fill:#aaa" x="12" y="38">/</text>
<text style="fill:#aaa" x="30" y="38">\</text>
<text style="fill:#aaa" x="36" y="38">_</text>
<text style="fill:#aaa" x="42" y="38">_</text>
<text style="fill:#aaa" x="48" y="38">_</text>
<text style="fill:#aaa" x="54" y="38">/</text>
<text style="fill:#aaa" x="60" y="38">\</text>
<text style="fill:#aaa" x="66" y="38">_</text>
<text style="fill:#aaa" x="72" y="38">,</text>
<text style="fill:#aaa" x="84" y="38">/</text>
<text style="fill:#aaa" x="90" y="38">\</text>
<text style="fill:#aaa" x="96" y="38">_</text>
<text style="fill:#aaa" x="102" y="38">,</text>
<text style="fill:#aaa" x="108" y="38">_</text>
<text style="fill:#aaa" x="114" y="38">/</text>
<text style="fill:#aaa" x="120" y="38">\</text>
<text style="fill:#aaa" x="126" y="38">_</text>
<text style="fill:#aaa" x="132" y="38">_</text>
<text style="fill:#aaa" x="138" y="38">/</text>
<text style="fill:#aaa" x="156" y="38">\</text>
<text style="fill:#aaa" x="162" y="38">_</text>
<text style="fill:#aaa" x="168" y="38">_</text>
<text style="fill:#aaa" x="174" y="38">/</text>
<text style="fill:#aaa" x="180" y="38">\</text>
<text style="fill:#aaa" x="186" y="38">_</text>
<text style="fill:#aaa" x="192" y="38">_</text>
<text style="fill:#aaa" x="198" y="38">_</text>
<text style="fill:#aaa" x="204" y="38">/</text>
<text style="fill:#aaa" x="210" y="38">\</text>
<text style="fill:#aaa" x="216" y="38">_</text>
<text style="fill:#aaa" x="222" y="38">,</text>
<text style="fill:#aaa" x="228" y="38">_</text>
<text style="fill:#aaa" x="234" y="38">/</text>
<text style="fill:#aaa" x="240" y="38">\</text>
<text style="fill:#aaa" x="246" y="38">_</text>
<text style="fill:#aaa" x="252" y="38">_</text>
<text style="fill:#aaa" x="258" y="38">/</text>
<text style="fill:#aaa" x="270" y="38">/</text>
<text style="fill:#aaa" x="276" y="38">_</text>
<text style="fill:#aaa" x="282" y="38">/</text>
<text style="fill:#aaa" x="300" y="38">\</text>
<text style="fill:#aaa" x="306" y="38">_</text>
<text style="fill:#aaa" x="312" y="38">_</text>
<text style="fill:#aaa" x="318" y="38">/</text>
<text style="fill:#aaa" x="324" y="38">|</text>
<text style="fill:#aaa" x="330" y="38">_</text>
<text style="fill:#aaa" x="336" y="38">_</text>
<text style="fill:#aaa" x="342" y="38">_</text>
<text style="fill:#aaa" x="348" y="38">/</text>
<text style="fill:#aaa" x="354" y="38">\</text>
<text style="fill:#aaa" x="360" y="38">_</text>
<text style="fill:#aaa" x="366" y="38">_</text>
<text style="fill:#aaa" x="372" y="38">/</text>
<text style="fill:#aaa" x="378" y="38">_</text>
<text style="fill:#aaa" x="384" y="38">/</text>
<text style="fill:#aaa" x="390" y="38">\</text>
<text style="fill:#aaa" x="396" y="38">_</text>
<text style="fill:#aaa" x="402" y="38">,</text>
<text style="fill:#aaa" x="408" y="38">_</text>
<text style="fill:#aaa" x="414" y="38">/</text>
<text style="fill:#aaa" x="420" y="38">\</text>
<text style="fill:#aaa" x="426" y="38">_</text>
<text style="fill:#aaa" x="432" y="38">_</text>
<text style="fill:#aaa" x="438" y="38">/</text>
<text style="fill:#aaa" x="444" y="38">_</text>
<text style="fill:#aaa" x="450" y="38">/</text>
<text style="fill:#aaa" x="456" y="38">\</text>
<text style="fill:#aaa" x="462" y="38">_</text>
<text style="fill:#aaa" x="468" y="38">_</text>
<text style="fill:#aaa" x="474" y="38">_</text>
<text style="fill:#aaa" x="480" y="38">/</text>
<text style="fill:#aaa" x="486" y="38">_</text>
<text style="fill:#aaa" x="492" y="38">/</text>
<text style="fill:#aaa" x="498" y="38">/</text>
<text style="fill:#aaa" x="504" y="38">_</text>
<text style="fill:#aaa" x="510" y="38">/</text>
<text style="fill:#aaa" x="516" y="38">_</text>
<text style="fill:#aaa" x="522" y="38">_</text>
<text style="fill:#aaa" x="528" y="38">_</text>
<text style="fill:#aaa" x="534" y="38">/</text>
<text style="fill:#aaa" x="54" y="48">/</text>
<text style="fill:#aaa" x="60" y="48">_</text>
<text style="fill:#aaa" x="66" y="48">_</text>
<text style="fill:#aaa" x="72" y="48">_</text>
<text style="fill:#aaa" x="78" y="48">/</text>
 </g>
</svg>
